<?xml version="1.0" encoding="UTF-8"?>
<svg width="144px" height="68px" viewBox="0 0 144 68" version="1.1" xmlns="http://www.w3.org/2000/svg" xmlns:xlink="http://www.w3.org/1999/xlink">
    <!-- Generator: Sketch 49.3 (51167) - http://www.bohemiancoding.com/sketch -->
    <title>Untitled</title>
    <desc>Created with Sketch.</desc>
    <defs>
        <polygon id="path-1" points="27.83 66.3 55.65 66.3 55.65 0.25 0 0.25 0 66.3"></polygon>
    </defs>
    <g id="Page-1" stroke="none" stroke-width="1" fill="none" fill-rule="evenodd">
        <g id="customers">
            <g id="afroman" transform="translate(0.000000, 19.000000)" fill-rule="nonzero">
                <path d="M36,18 C36,27.94 27.94,36 18,36 C8.06,36 0,27.94 0,18 C0,8.06 8.06,0 18,0 C27.94,0 36,8.06 36,18" id="Fill-1" fill="#2E4369"></path>
                <path d="M7.2,24.5 C7.2,25.86 6.1,26.96 4.75,26.96 C3.39,26.96 2.29,25.86 2.29,24.5 C2.29,23.15 3.39,22.05 4.72,22.05 C6.05,22.05 7.17,23.15 7.17,24.5" id="Fill-4" fill="#DBF4FE"></path>
                <path d="M32.6,23.04 C32.6,30.7 26.38,36.91 18.72,36.91 C11.06,36.91 4.85,30.71 4.85,23.07 C4.85,15.41 11.05,9.2 18.72,9.2 C26.38,9.2 32.59,15.4 32.59,23.06" id="Fill-6" fill="#DBF4FE"></path>
                <path d="M18.9,31.8 C12.17,30.04 6.34,25.95 4.7,19.95 L4.7,24.13 C4.17,36.48 13.32,42.1 21.15,42.1 C28.98,42.1 34.45,37.24 33.07,28.02 C32.91,26.97 32.72,25.84 32.47,24.82 C31,31.02 25.4,33.48 18.9,31.8" id="Fill-8" fill="#2E4369"></path>
                <path d="M19.35,33.1 C19.35,36.4 22.03,39.07 25.33,39.07 C28.63,39.07 31.3,36.4 31.3,33.1 C31.3,29.8 28.63,27.12 25.33,27.12 C22.03,27.12 19.35,29.8 19.35,33.1" id="Fill-10" fill="#2E4369"></path>
                <path d="M27.72,31.7 C27.72,32.9 26.77,33.84 25.59,33.84 C24.39,33.84 23.42,32.89 23.42,31.71 L27.69,31.71 L27.72,31.7 Z" id="Fill-12" fill="#FFFFFF"></path>
                <path d="M23.48,23.73 C23.48,25.93 21.7,27.73 19.48,27.73 C17.28,27.73 15.5,25.93 15.5,23.73 C15.5,21.53 17.28,19.73 19.5,19.73 C21.7,19.73 23.48,21.53 23.48,23.73" id="Fill-14" fill="#FFFFFF"></path>
                <path d="M34.58,23.73 C34.58,25.93 32.78,27.73 30.58,27.73 C28.38,27.73 26.58,25.93 26.58,23.73 C26.58,21.53 28.38,19.73 30.58,19.73 C32.78,19.73 34.58,21.53 34.58,23.73" id="Fill-16" fill="#FFFFFF"></path>
                <path d="M30.58,27.28 C28.63,27.28 27.03,25.68 27.03,23.73 C27.03,21.77 28.63,20.18 30.58,20.18 C32.54,20.18 34.13,21.78 34.13,23.73 C34.13,25.69 32.53,27.28 30.58,27.28 M19.48,27.28 C17.53,27.28 15.94,25.68 15.94,23.73 C15.94,21.77 17.54,20.18 19.49,20.18 C21.42,20.18 23.01,21.78 23.01,23.73 C23.01,25.69 21.41,27.28 19.46,27.28 M30.54,19.3 C28.18,19.3 26.26,21.15 26.12,23.47 L23.9,23.47 C23.78,21.15 21.85,19.3 19.5,19.3 C17.13,19.3 15.2,21.15 15.07,23.47 L6.17,23.47 L6.17,24.37 L15.1,24.37 C15.4,26.51 17.26,28.17 19.5,28.17 C21.72,28.17 23.57,26.51 23.88,24.37 L26.2,24.37 C26.5,26.51 28.35,28.17 30.58,28.17 C33.03,28.17 35.02,26.17 35.02,23.73 C35.02,21.29 33.02,19.3 30.58,19.3" id="Fill-18" fill="#2E4369"></path>
                <path d="M34.48,18.22 L2.96,18.22 C2.96,9.52 10.02,2.46 18.72,2.46 C27.42,2.46 34.48,9.52 34.48,18.22" id="Fill-20" fill="#2E4369"></path>
            </g>
            <g id="gurl" transform="translate(43.000000, 0.000000)">
                <g id="Group-3" transform="translate(0.000000, 0.454000)">
                    <g id="Fill-1-Clipped">
                        <mask id="mask-2" fill="white">
                            <use xlink:href="#path-1"></use>
                        </mask>
                        <g id="path-1"></g>
                        <path d="M0,66.3 L0,27.57 C0,12.53 12.52,0.24 27.83,0.24 C43.13,0.24 55.65,12.54 55.65,27.56 L55.65,66.3 L0,66.3 Z" id="Fill-1" fill="#2E4369" fill-rule="nonzero" mask="url(#mask-2)"></path>
                    </g>
                </g>
                <path d="M53.58,27.05 C53.58,39.45 43.53,49.5 31.13,49.5 C18.73,49.5 8.68,39.44 8.68,27.05 C8.68,14.65 18.74,4.6 31.13,4.6 C43.53,4.6 53.58,14.65 53.58,27.05" id="Fill-4" fill="#DBF4FE" fill-rule="nonzero"></path>
                <path d="M40.46,39.83 C40.46,41.73 38.91,43.28 37,43.28 C35.1,43.28 33.55,41.73 33.55,39.83 L40.45,39.83 L40.46,39.83 Z" id="Fill-6" fill="#393F54" fill-rule="nonzero"></path>
                <path d="M46.67,30.5 C46.67,31.45 45.9,32.23 44.95,32.23 C43.99,32.23 43.22,31.45 43.22,30.5 C43.22,29.55 43.99,28.77 44.95,28.77 C45.9,28.77 46.67,29.55 46.67,30.5" id="Fill-8" fill="#393F54" fill-rule="nonzero"></path>
                <path d="M30.8,30.5 C30.8,31.45 30,32.23 29.06,32.23 C28.11,32.23 27.33,31.45 27.33,30.5 C27.33,29.55 28.11,28.77 29.06,28.77 C30.01,28.77 30.79,29.55 30.79,30.5" id="Fill-10" fill="#393F54" fill-rule="nonzero"></path>
                <path d="M31.13,2.87 C18.73,2.87 8.68,12.92 8.68,25.32 L27.7,25.32 L30.1,21.18 L32.5,25.32 L53.58,25.32 C53.58,12.92 43.53,2.87 31.13,2.87" id="Fill-12" fill="#2E4369" fill-rule="nonzero"></path>
                <path d="M13.87,32.02 C13.87,34.22 12.09,35.99 9.9,35.99 C7.7,35.99 5.93,34.19 5.93,31.99 C5.93,29.79 7.71,28.02 9.9,28.02 C12.1,28.02 13.87,29.8 13.87,31.99" id="Fill-14" fill="#DBF4FE" fill-rule="nonzero"></path>
            </g>
            <g id="baldman" transform="translate(104.000000, 23.000000)" fill-rule="nonzero">
                <path d="M6.48,20.25 C6.48,22.05 5.03,23.49 3.24,23.49 C1.44,23.49 1.42108547e-14,22.01 1.42108547e-14,20.22 C1.42108547e-14,18.42 1.45,16.98 3.24,16.98 C5.04,16.98 6.48,18.43 6.48,20.22" id="Fill-1" fill="#DBF4FE"></path>
                <path d="M40,18.3 C40,28.43 31.8,36.63 21.7,36.63 C11.57,36.63 3.37,28.43 3.37,18.31 C3.37,8.21 11.57,0.01 21.69,0.01 C31.79,0.01 39.99,8.21 39.99,18.31" id="Fill-3" fill="#DBF4FE"></path>
                <path d="M24.37,29.3 C14.6,29.3 5.03,21.56 4.53,11.93 C3.53,14.23 3.23,16.63 3.37,20.16 C3.77,30.23 11.55,38.41 21.63,38.41 C31.53,38.41 39.59,30.51 39.86,20.69 C36.64,25.87 30.91,29.33 24.36,29.33" id="Fill-6" fill="#BCD1D8"></path>
                <path d="M22.47,29.74 C22.47,33.04 25.15,35.71 28.44,35.71 C31.74,35.71 34.41,33.07 34.41,29.77 C34.41,26.47 31.77,23.8 28.47,23.8 C25.17,23.8 22.5,26.46 22.5,29.76" id="Fill-8" fill="#BCD1D8"></path>
                <path d="M31.1,28.67 C31.1,30.22 29.85,31.47 28.3,31.47 C26.74,31.49 25.48,30.22 25.48,28.67 L31.11,28.67 L31.1,28.67 Z" id="Fill-10" fill="#1E2E44"></path>
                <path d="M35.5,19.2 C35.5,19.98 34.87,20.62 34.1,20.63 C33.3,20.63 32.67,20.01 32.67,19.23 C32.67,18.45 33.29,17.81 34.07,17.81 C34.85,17.81 35.47,18.46 35.49,19.21" id="Fill-12" fill="#1E2E44"></path>
                <path d="M23.1,19.3 C23.1,20.08 22.47,20.7 21.7,20.72 C20.9,20.72 20.28,20.1 20.27,19.32 C20.27,18.54 20.89,17.9 21.67,17.9 C22.45,17.9 23.07,18.52 23.09,19.3" id="Fill-14" fill="#1E2E44"></path>
            </g>
        </g>
    </g>
</svg>