<?xml version="1.0" encoding="UTF-8"?>
<svg width="40px" height="60px" viewBox="0 0 40 60" version="1.1" xmlns="http://www.w3.org/2000/svg" xmlns:xlink="http://www.w3.org/1999/xlink">
    <!-- Generator: Sketch 49.3 (51167) - http://www.bohemiancoding.com/sketch -->
    <title>Untitled</title>
    <desc>Created with Sketch.</desc>
    <defs></defs>
    <g id="Page-1" stroke="none" stroke-width="1" fill="none" fill-rule="evenodd">
        <g id="Security" transform="translate(0.000000, 3.000000)">
            <path d="M20.7,0 C14.4,0 9.4,5 9.4,11.3 L9.4,35.8 L32,35.8 L32,11.3 C32,5 27,0 20.8,0 L20.7,0 Z" id="Shape" stroke="#D3D5D8" stroke-width="5.7"></path>
            <g id="Clipped" transform="translate(0.000000, 22.000000)" fill="#DBF4FE" fill-rule="nonzero">
                <polyline id="Shape" points="0.8 34.2 39.8 34.2 39.8 0.2 1 0.2"></polyline>
            </g>
            <g id="Clipped" transform="translate(17.000000, 33.000000)" fill="#2E4369" fill-rule="nonzero">
                <path d="M7.3,3.7 C7.3,1.7 5.7,0.2 3.8,0.2 C1.8,0.2 0.2,1.8 0.2,3.7 C0.2,4.9 0.8,6 1.7,6.7 L1.7,13 L6,13 L6,6.7 C6.8,6 7.3,4.9 7.3,3.7" id="Shape"></path>
            </g>
        </g>
    </g>
</svg>